<svg width="560" height="560" viewBox="0 0 560 560" fill="none" xmlns="http://www.w3.org/2000/svg">
<rect x="0.5" y="0.5" width="559" height="559" rx="279.5" fill="white"/>
<rect x="0.5" y="0.5" width="559" height="559" rx="279.5" stroke="black"/>
<path d="M390.178 149.7C378.178 145.8 365.778 143.8 353.478 143.8C349.878 143.8 346.178 144 342.478 144.3C332.078 145.2 318.478 147 305.978 151.9C294.678 156.4 285.478 162.9 277.878 171.8C277.478 171.4 277.078 171 276.678 170.7C273.778 168.1 271.378 165.9 268.678 163.7C251.378 149.8 233.778 143 214.778 143C213.178 143 211.478 143.1 209.878 143.2C190.678 144.4 172.978 148.8 157.478 156.3C143.478 163.1 132.378 173.1 124.478 186.3C101.678 224.3 97.4781 287.3 134.478 329C158.678 356.3 181.378 379.4 203.778 399.9C220.378 415 239.578 429.4 262.478 444C267.978 447.5 273.178 449.2 278.178 449.2C283.678 449.2 289.178 447.2 294.978 443.1C317.678 427.2 339.478 409.6 360.478 392.5C369.678 385 379.178 377.3 388.678 369.8C400.178 360.7 410.178 351 418.578 340.7C438.278 316.7 449.978 289.5 452.378 262.2C454.778 235 447.978 207.8 432.778 183.4C422.478 166.9 408.178 155.5 390.178 149.7ZM136.378 252.9C135.778 240.5 138.078 227.4 143.578 212.7C150.878 193.1 164.678 180.5 184.678 175.1C194.078 172.6 204.178 170.1 214.078 170.1C221.578 170.1 228.278 171.5 234.578 174.4C247.578 180.3 257.778 189.1 265.078 200.4C267.378 204 270.378 207.9 275.778 209.8C277.778 210.5 279.678 210.9 281.678 210.9C287.878 210.9 292.678 207.3 294.778 201.3C300.378 184.7 312.678 175.7 334.678 172.3C341.778 171.2 348.178 170.7 354.278 170.7C363.978 170.7 372.678 172.1 380.978 174.9C391.678 178.5 399.978 184.7 405.578 193.3C416.478 209.9 422.578 227.1 423.778 244.3C424.978 261.5 421.378 279.4 412.878 297.3C404.378 315.3 392.278 330.8 376.678 343.5C368.878 349.8 361.078 356.3 353.478 362.6C330.678 381.5 307.078 401.1 282.078 418L281.778 418.2C279.778 419.6 277.878 420.8 277.278 420.9C276.678 420.8 274.478 419.4 272.778 418.3C252.778 405.2 232.978 389.5 212.378 370.4C195.178 354.5 177.878 336.3 157.678 312.9C142.478 295.2 135.478 275.7 136.478 253.3V253.2L136.378 252.9Z" fill="#8EBDFE"/>
<path d="M80 224H480V294H80V224Z" fill="white"/>
<path d="M104.672 283.72C101.84 283.72 99.5124 283.528 97.6884 283.144C95.8644 282.808 94.4004 282.304 93.2964 281.632C92.2404 280.912 91.4964 280.024 91.0644 278.968C90.6804 277.912 90.4884 276.664 90.4884 275.224C90.4884 274.792 90.5124 274.192 90.5604 273.424C90.6084 272.608 90.6804 271.48 90.7764 270.04C90.8724 268.6 90.9924 266.752 91.1364 264.496C91.3284 262.192 91.5684 259.312 91.8564 255.856C92.1924 251.584 92.4564 248.2 92.6484 245.704C92.8404 243.208 92.9844 241.288 93.0804 239.944C93.1764 238.552 93.2244 237.592 93.2244 237.064C93.2724 236.488 93.2964 236.008 93.2964 235.624C93.2964 234.856 93.2964 234.232 93.2964 233.752C93.3444 233.272 93.3924 232.912 93.4404 232.672C93.5364 232.384 93.6564 232.192 93.8004 232.096C93.9924 231.952 94.2564 231.88 94.5924 231.88C97.4244 231.688 99.8244 231.544 101.792 231.448C103.808 231.352 105.56 231.304 107.048 231.304C110.696 231.304 113.816 231.616 116.408 232.24C119.048 232.816 121.184 233.656 122.816 234.76C124.448 235.864 125.648 237.232 126.416 238.864C127.184 240.496 127.568 242.344 127.568 244.408C127.568 245.56 127.448 246.76 127.208 248.008C126.968 249.208 126.56 250.36 125.984 251.464C125.408 252.568 124.616 253.552 123.608 254.416C122.648 255.232 121.424 255.832 119.936 256.216C122.72 257.08 124.688 258.52 125.84 260.536C126.992 262.504 127.568 264.856 127.568 267.592C127.568 269.8 127.208 271.888 126.488 273.856C125.768 275.776 124.52 277.48 122.744 278.968C120.968 280.408 118.616 281.56 115.688 282.424C112.76 283.288 109.088 283.72 104.672 283.72ZM108.776 261.4C108.248 261.4 107.6 261.448 106.832 261.544C106.064 261.592 105.272 261.688 104.456 261.832L103.664 273.568C105.392 274.096 106.952 274.36 108.344 274.36C109.832 274.36 111.032 274.144 111.944 273.712C112.856 273.28 113.552 272.752 114.032 272.128C114.56 271.456 114.896 270.736 115.04 269.968C115.232 269.152 115.328 268.408 115.328 267.736C115.328 265.96 114.824 264.472 113.816 263.272C112.856 262.024 111.176 261.4 108.776 261.4ZM105.752 241.6C105.656 242.848 105.56 244.312 105.464 245.992C105.416 247.672 105.32 249.496 105.176 251.464C106.712 251.848 108.08 252.04 109.28 252.04C110.72 252.04 111.872 251.872 112.736 251.536C113.6 251.2 114.272 250.768 114.752 250.24C115.28 249.712 115.616 249.136 115.76 248.512C115.952 247.888 116.048 247.288 116.048 246.712C116.048 245.224 115.544 243.952 114.536 242.896C113.576 241.792 111.896 241.24 109.496 241.24C108.968 241.24 108.368 241.288 107.696 241.384C107.072 241.432 106.424 241.504 105.752 241.6ZM141.57 283C138.882 283 136.962 282.472 135.81 281.416C134.658 280.36 134.082 278.848 134.082 276.88C134.082 275.92 134.154 274.288 134.298 271.984C134.442 269.632 134.634 266.968 134.874 263.992C135.114 261.016 135.354 257.872 135.594 254.56C135.834 251.248 136.074 248.128 136.314 245.2C136.554 242.272 136.746 239.704 136.89 237.496C137.034 235.288 137.106 233.776 137.106 232.96C137.106 232.24 137.49 231.88 138.258 231.88H142.218C144.906 231.88 146.754 232.408 147.762 233.464C148.818 234.472 149.346 235.984 149.346 238C149.346 238.24 149.322 238.456 149.274 238.648C149.274 238.84 149.274 239.056 149.274 239.296L146.898 272.92H159.858C160.146 272.92 160.41 273.016 160.65 273.208C160.89 273.352 161.01 273.592 161.01 273.928L160.722 278.176C160.626 279.616 160.218 280.792 159.498 281.704C158.826 282.568 157.41 283 155.25 283H141.57ZM205.396 259.528C205.252 260.968 205.036 262.576 204.748 264.352C204.46 266.08 204.004 267.856 203.38 269.68C202.804 271.456 202.012 273.184 201.004 274.864C199.996 276.544 198.7 278.056 197.116 279.4C195.532 280.696 193.612 281.752 191.356 282.568C189.148 283.336 186.508 283.72 183.436 283.72C180.316 283.72 177.652 283.288 175.444 282.424C173.236 281.512 171.436 280.288 170.044 278.752C168.652 277.168 167.644 275.344 167.02 273.28C166.396 271.216 166.084 269.008 166.084 266.656C166.084 265.6 166.132 264.184 166.228 262.408C166.324 260.584 166.444 258.616 166.588 256.504C166.78 254.392 166.972 252.208 167.164 249.952C167.356 247.648 167.524 245.464 167.668 243.4C167.86 241.336 168.028 239.488 168.172 237.856C168.316 236.176 168.412 234.904 168.46 234.04C168.508 233.128 168.628 232.552 168.82 232.312C169.012 232.024 169.3 231.88 169.684 231.88H173.644C176.572 231.88 178.54 232.504 179.548 233.752C180.556 235 181.06 236.848 181.06 239.296C181.06 239.44 181.012 240.088 180.916 241.24C180.868 242.344 180.772 243.712 180.628 245.344C180.532 246.976 180.412 248.752 180.268 250.672C180.172 252.592 180.052 254.416 179.908 256.144C179.812 257.872 179.716 259.384 179.62 260.68C179.572 261.976 179.548 262.84 179.548 263.272C179.548 264.088 179.572 265.024 179.62 266.08C179.716 267.136 179.908 268.144 180.196 269.104C180.532 270.064 181.036 270.88 181.708 271.552C182.428 272.176 183.436 272.488 184.732 272.488C186.364 272.488 187.684 271.936 188.692 270.832C189.748 269.728 190.54 268.408 191.068 266.872C191.644 265.336 192.028 263.776 192.22 262.192C192.46 260.608 192.628 259.312 192.724 258.304C192.916 255.856 193.108 253.336 193.3 250.744C193.54 248.152 193.732 245.728 193.876 243.472C194.068 241.216 194.212 239.248 194.308 237.568C194.404 235.888 194.452 234.736 194.452 234.112C194.452 233.152 194.524 232.552 194.668 232.312C194.812 232.024 195.124 231.88 195.604 231.88H199.564C201.196 231.88 202.468 232.024 203.38 232.312C204.34 232.6 205.06 232.984 205.54 233.464C206.02 233.944 206.308 234.496 206.404 235.12C206.548 235.744 206.62 236.392 206.62 237.064C206.62 237.688 206.572 238.864 206.476 240.592C206.428 242.32 206.356 244.288 206.26 246.496C206.164 248.704 206.044 250.984 205.9 253.336C205.756 255.688 205.588 257.752 205.396 259.528ZM220.601 283C217.913 283 215.993 282.472 214.841 281.416C213.689 280.36 213.113 278.848 213.113 276.88C213.113 275.92 213.185 274.288 213.329 271.984C213.473 269.632 213.665 266.968 213.905 263.992C214.145 261.016 214.385 257.872 214.625 254.56C214.865 251.248 215.105 248.128 215.345 245.2C215.585 242.272 215.777 239.704 215.921 237.496C216.065 235.288 216.137 233.776 216.137 232.96C216.137 232.24 216.521 231.88 217.289 231.88H242.633C242.921 231.88 243.185 231.952 243.425 232.096C243.665 232.24 243.785 232.504 243.785 232.888L243.497 237.136C243.401 238.576 242.993 239.752 242.273 240.664C241.601 241.528 240.185 241.96 238.025 241.96H228.089L227.369 252.112H237.593C237.881 252.112 238.145 252.184 238.385 252.328C238.625 252.472 238.745 252.736 238.745 253.12L238.457 257.368C238.361 258.808 237.953 259.984 237.233 260.896C236.561 261.76 235.145 262.192 232.985 262.192H226.721L225.929 272.92H241.769C242.057 272.92 242.321 273.016 242.561 273.208C242.801 273.352 242.921 273.592 242.921 273.928L242.633 278.176C242.537 279.616 242.129 280.792 241.409 281.704C240.737 282.568 239.321 283 237.161 283H220.601ZM298.06 283C295.372 283 293.452 282.472 292.3 281.416C291.148 280.36 290.572 278.848 290.572 276.88C290.572 275.824 290.668 273.952 290.86 271.264C291.052 268.576 291.268 265.552 291.508 262.192H278.692L277.252 281.92C277.204 282.304 277.108 282.592 276.964 282.784C276.82 282.928 276.532 283 276.1 283H272.14C269.452 283 267.532 282.472 266.38 281.416C265.228 280.36 264.652 278.848 264.652 276.88C264.652 275.92 264.724 274.288 264.868 271.984C265.012 269.632 265.204 266.968 265.444 263.992C265.684 261.016 265.924 257.872 266.164 254.56C266.404 251.248 266.644 248.128 266.884 245.2C267.124 242.272 267.316 239.704 267.46 237.496C267.604 235.288 267.676 233.776 267.676 232.96C267.676 232.24 268.06 231.88 268.828 231.88H272.788C275.716 231.88 277.684 232.504 278.692 233.752C279.7 235 280.204 236.848 280.204 239.296C280.204 239.68 280.132 241.048 279.988 243.4C279.844 245.704 279.652 248.488 279.412 251.752H292.3C292.444 249.64 292.588 247.576 292.732 245.56C292.924 243.544 293.068 241.696 293.164 240.016C293.308 238.336 293.404 236.896 293.452 235.696C293.548 234.448 293.596 233.536 293.596 232.96C293.596 232.24 293.98 231.88 294.748 231.88H298.708C301.636 231.88 303.604 232.504 304.612 233.752C305.62 235 306.124 236.848 306.124 239.296C306.124 239.536 306.076 240.304 305.98 241.6C305.932 242.896 305.836 244.528 305.692 246.496C305.548 248.464 305.38 250.672 305.188 253.12C305.044 255.52 304.876 257.992 304.684 260.536C304.54 263.08 304.372 265.576 304.18 268.024C304.036 270.424 303.892 272.608 303.748 274.576C303.604 276.544 303.484 278.2 303.388 279.544C303.292 280.84 303.22 281.632 303.172 281.92C303.124 282.304 303.028 282.592 302.884 282.784C302.74 282.928 302.452 283 302.02 283H298.06ZM320.656 283C317.968 283 316.048 282.472 314.896 281.416C313.744 280.36 313.168 278.848 313.168 276.88C313.168 275.92 313.24 274.288 313.384 271.984C313.528 269.632 313.72 266.968 313.96 263.992C314.2 261.016 314.44 257.872 314.68 254.56C314.92 251.248 315.16 248.128 315.4 245.2C315.64 242.272 315.832 239.704 315.976 237.496C316.12 235.288 316.192 233.776 316.192 232.96C316.192 232.24 316.576 231.88 317.344 231.88L342.688 231.88C342.976 231.88 343.24 231.952 343.48 232.096C343.72 232.24 343.84 232.504 343.84 232.888L343.552 237.136C343.456 238.576 343.048 239.752 342.328 240.664C341.656 241.528 340.24 241.96 338.08 241.96H328.144L327.424 252.112H337.648C337.936 252.112 338.2 252.184 338.44 252.328C338.68 252.472 338.8 252.736 338.8 253.12L338.512 257.368C338.416 258.808 338.008 259.984 337.288 260.896C336.616 261.76 335.2 262.192 333.04 262.192H326.776L325.984 272.92H341.824C342.112 272.92 342.376 273.016 342.616 273.208C342.856 273.352 342.976 273.592 342.976 273.928L342.688 278.176C342.592 279.616 342.184 280.792 341.464 281.704C340.792 282.568 339.376 283 337.216 283H320.656ZM371.918 231.88C373.118 231.88 374.102 232.12 374.87 232.6C375.686 233.032 376.358 233.632 376.886 234.4C377.414 235.12 377.846 235.96 378.182 236.92C378.518 237.88 378.806 238.864 379.046 239.872C380.966 247.648 382.55 254.056 383.798 259.096C385.046 264.136 386.03 268.216 386.75 271.336C387.47 274.408 387.974 276.688 388.262 278.176C388.55 279.664 388.694 280.696 388.694 281.272C388.694 281.944 388.526 282.4 388.19 282.64C387.902 282.88 387.422 283 386.75 283H383.078C381.014 283 379.358 282.76 378.11 282.28C376.91 281.752 375.974 281.008 375.302 280.048C374.678 279.088 374.222 277.936 373.934 276.592C373.646 275.2 373.406 273.64 373.214 271.912H360.686L358.31 281.848C358.07 282.616 357.518 283 356.654 283H352.838C352.07 283 351.278 282.928 350.462 282.784C349.646 282.592 348.902 282.304 348.23 281.92C347.606 281.536 347.078 281.056 346.646 280.48C346.214 279.856 345.998 279.112 345.998 278.248C345.998 277.192 346.334 275.464 347.006 273.064C347.678 270.664 348.518 267.952 349.526 264.928C350.582 261.856 351.734 258.664 352.982 255.352C354.278 251.992 355.526 248.824 356.726 245.848C357.926 242.872 359.006 240.256 359.966 238C360.974 235.744 361.742 234.16 362.27 233.248C362.654 232.576 362.99 232.192 363.278 232.096C363.614 231.952 364.214 231.88 365.078 231.88H371.918ZM363.278 261.472H371.558L368.534 242.464L363.278 261.472ZM401.305 283C398.569 283 396.625 282.472 395.473 281.416C394.369 280.312 393.817 278.704 393.817 276.592C393.817 276.016 393.841 275.056 393.889 273.712C393.985 272.32 394.105 270.688 394.249 268.816C394.393 266.944 394.537 264.904 394.681 262.696C394.873 260.44 395.065 258.16 395.257 255.856C395.641 251.008 395.905 247.072 396.049 244.048C396.241 241.024 396.385 238.648 396.481 236.92C396.625 234.76 396.769 233.392 396.913 232.816C397.057 232.192 397.369 231.88 397.849 231.88C399.337 231.88 400.849 231.856 402.385 231.808C403.969 231.712 405.481 231.616 406.921 231.52C408.361 231.424 409.705 231.352 410.953 231.304C412.249 231.208 413.401 231.16 414.409 231.16C417.481 231.16 420.121 231.544 422.329 232.312C424.537 233.08 426.313 234.16 427.657 235.552C429.049 236.944 430.057 238.624 430.681 240.592C431.353 242.56 431.689 244.768 431.689 247.216C431.689 250.96 430.945 254.296 429.457 257.224C427.969 260.152 425.593 262.384 422.329 263.92L428.377 272.56C429.481 274.192 430.321 275.464 430.897 276.376C431.473 277.24 431.761 277.888 431.761 278.32C431.761 278.656 431.545 279.136 431.113 279.76C430.729 280.336 430.129 280.936 429.313 281.56C428.545 282.136 427.585 282.64 426.433 283.072C425.329 283.504 424.081 283.72 422.689 283.72C421.153 283.72 419.809 283.216 418.657 282.208C417.553 281.2 416.545 279.88 415.633 278.248C414.769 276.568 414.001 274.648 413.329 272.488C412.705 270.328 412.105 268.072 411.529 265.72C409.801 265.624 408.385 265.456 407.281 265.216C407.137 267.328 406.993 269.344 406.849 271.264C406.705 273.184 406.585 274.912 406.489 276.448C406.393 277.936 406.297 279.184 406.201 280.192C406.105 281.152 406.057 281.728 406.057 281.92C406.009 282.304 405.913 282.592 405.769 282.784C405.625 282.928 405.337 283 404.905 283H401.305ZM412.969 241.96C412.393 241.96 411.745 242.008 411.025 242.104C410.305 242.152 409.537 242.224 408.721 242.32C408.625 244 408.505 246.016 408.361 248.368C408.265 250.672 408.121 253.144 407.929 255.784C409.609 256.168 411.073 256.36 412.321 256.36C413.809 256.36 415.009 256.072 415.921 255.496C416.881 254.92 417.625 254.224 418.153 253.408C418.681 252.544 419.017 251.632 419.161 250.672C419.353 249.712 419.449 248.848 419.449 248.08C419.449 246.112 418.969 244.6 418.009 243.544C417.049 242.488 415.369 241.96 412.969 241.96ZM461.02 241.96L458.284 281.92C458.236 282.64 457.972 283 457.492 283H453.532C450.844 283 448.924 282.472 447.772 281.416C446.62 280.36 446.044 278.848 446.044 276.88C446.044 276.16 446.068 275.08 446.116 273.64C446.212 272.2 446.332 270.52 446.476 268.6C446.62 266.632 446.764 264.52 446.908 262.264C447.1 259.96 447.292 257.656 447.484 255.352C447.676 253 447.844 250.672 447.988 248.368C448.18 246.064 448.348 243.928 448.492 241.96H436.972C436.444 241.96 436.18 241.624 436.18 240.952L436.396 236.92C436.444 236.296 436.54 235.696 436.684 235.12C436.876 234.496 437.164 233.944 437.548 233.464C437.932 232.984 438.412 232.6 438.988 232.312C439.612 232.024 440.356 231.88 441.22 231.88H473.404C473.692 231.88 473.956 231.952 474.196 232.096C474.436 232.24 474.556 232.504 474.556 232.888L474.268 237.136C474.172 238.576 473.764 239.752 473.044 240.664C472.372 241.528 470.956 241.96 468.796 241.96H461.02Z" fill="#8EBDFE"/>
</svg>
