<svg width="50" height="44" viewBox="0 0 50 44" fill="none" xmlns="http://www.w3.org/2000/svg">
<path fill-rule="evenodd" clip-rule="evenodd" d="M41.9273 43.3976C46.8904 38.8289 50 32.2776 50 25C50 11.1929 38.8071 0 25 0C11.1929 0 0 11.1929 0 25C0 32.2776 3.10963 38.8289 8.07267 43.3976C8.17346 41.4695 8.41403 40.1289 8.98827 38.992C9.85751 37.2717 11.2445 35.8731 12.9504 34.9966C14.8907 34 17.4293 34 22.5067 34H27.4933C32.5707 34 35.1093 34 37.0496 34.9966C38.7555 35.8731 40.1425 37.2717 41.0117 38.992C41.586 40.1289 41.8265 41.4695 41.9273 43.3976ZM25 32C26.3132 32 27.6136 31.7413 28.8268 31.2388C30.0401 30.7362 31.1425 29.9997 32.0711 29.0711C32.9997 28.1425 33.7362 27.0401 34.2388 25.8268C34.7413 24.6136 35 23.3132 35 22C35 20.6868 34.7413 19.3864 34.2388 18.1732C33.7362 16.9599 32.9997 15.8575 32.0711 14.9289C31.1425 14.0003 30.0401 13.2638 28.8268 12.7612C27.6136 12.2587 26.3132 12 25 12C22.3478 12 19.8043 13.0536 17.9289 14.9289C16.0536 16.8043 15 19.3478 15 22C15 24.6522 16.0536 27.1957 17.9289 29.0711C19.8043 30.9464 22.3478 32 25 32Z" fill="#C3C5C9"/>
</svg>
