<svg xmlns="http://www.w3.org/2000/svg" xmlns:xlink="http://www.w3.org/1999/xlink" fill="none" version="1.1" width="25" height="28" viewBox="0 0 25 28"><defs><clipPath id="master_svg0_76_12538"><rect x="0.703125" y="4" width="23.59375" height="20" rx="0"/></clipPath></defs><g><rect x="0" y="0" width="25" height="28" rx="0" fill="#000000" fill-opacity="0" style="mix-blend-mode:passthrough"/><g clip-path="url(#master_svg0_76_12538)"><g transform="matrix(1,0,0,-1,0,47.25445556640625)"><g><path d="M22.656225,32.35601778320313Q24.296925,34.11382778320312,24.296925,36.37942778320313Q24.296925,38.606027783203125,22.656225,40.36382778320312Q21.132825,41.809127783203124,19.101525,42.00442778320313Q17.109325,42.16072778320313,15.390625,40.94972778320313L15.312525,40.91072778320313Q14.882825,40.59822778320313,14.804725,40.090427783203126Q14.726525,39.621627783203124,15.039025,39.152927783203126Q15.351525,38.76222778320312,15.820325,38.684127783203124Q16.328125,38.56692778320313,16.757825,38.87942778320313L16.835925,38.918527783203125Q17.812525,39.58262778320312,18.906225,39.50442778320313Q20.039025,39.42632778320312,20.898425,38.606027783203125Q21.796925,37.62942778320313,21.796925,36.37942778320313Q21.796925,35.090427783203126,20.898425,34.152927783203126L16.484325,29.738837783203124Q15.507825,28.840397783203123,14.257825,28.840397783203123Q13.007825,28.840397783203123,12.031225,29.738837783203124Q11.210925,30.598207783203126,11.132825,31.731017783203125Q11.054725,32.82476778320313,11.718725,33.80132778320312L11.757825,33.87942778320313Q12.031225,34.309127783203124,11.953125,34.777927783203126Q11.875025,35.28572778320313,11.445325,35.59822778320313Q11.015625,35.91072778320313,10.546875,35.83262778320312Q10.039065,35.75442778320313,9.726565,35.32472778320312L9.687505,35.246627783203124Q8.476565,33.52789778320312,8.632815,31.496647783203123Q8.789065,29.504457783203126,10.273435,27.981017783203125Q12.031225,26.340397783203123,14.257825,26.340397783203123Q16.523425,26.340397783203123,18.281225,27.981017783203125L22.656225,32.35601778320313ZM2.343745,33.29351778320313Q0.703125,31.535707783203126,0.703125,29.270087783203124Q0.703125,27.043517783203125,2.343745,25.285707783203126Q3.867185,23.840397783203127,5.898435,23.645084883203126Q7.890625,23.488834783203124,9.648435,24.699767783203125L9.687505,24.738837783203124Q10.117185,25.051337783203124,10.195315,25.559147783203127Q10.273435,26.027897783203123,10.000005,26.496647783203123Q9.648435,26.887267783203125,9.179685,26.965397783203123Q8.671875,27.082587783203124,8.242185,26.770087783203124L8.164065,26.731017783203125Q7.187505,26.066957783203126,6.093745,26.145087783203124Q4.960935,26.223207783203126,4.101565,27.043517783203125Q3.203125,28.020087783203124,3.203125,29.270087783203124Q3.203125,30.559147783203123,4.140625,31.496647783203123L8.515625,35.91072778320313Q9.492185,36.809127783203124,10.742225,36.809127783203124Q11.992225,36.809127783203124,12.968725,35.91072778320313Q13.789025,35.05132778320312,13.867225,33.918527783203125Q13.945325,32.82476778320313,13.281225,31.848207783203126L13.242225,31.770087783203124Q12.968725,31.340397783203123,13.046925,30.832587783203124Q13.125025,30.363837783203124,13.554725,30.051337783203124Q13.984325,29.738837783203124,14.453125,29.816957783203126Q14.960925,29.895087783203124,15.273425,30.324767783203125L15.312525,30.402897783203123Q16.523425,32.12164778320312,16.367224999999998,34.152927783203126Q16.210925,36.14512778320312,14.726525,37.668527783203125Q12.968725,39.309127783203124,10.742225,39.309127783203124Q8.476565,39.309127783203124,6.757815,37.668527783203125L2.343745,33.29351778320313Z" fill="#000000" fill-opacity="1" style="mix-blend-mode:passthrough"/></g></g></g></g></svg>