<svg width="80" height="80" viewBox="0 0 80 80" fill="none" xmlns="http://www.w3.org/2000/svg">
<path d="M40 73.3333C21.59 73.3333 6.66663 58.41 6.66663 40C6.66663 21.59 21.59 6.66666 40 6.66666C58.41 6.66666 73.3333 21.59 73.3333 40C73.3333 58.41 58.41 73.3333 40 73.3333ZM40 66.6667C47.0724 66.6667 53.8552 63.8571 58.8561 58.8562C63.8571 53.8552 66.6666 47.0724 66.6666 40C66.6666 32.9275 63.8571 26.1448 58.8561 21.1438C53.8552 16.1428 47.0724 13.3333 40 13.3333C32.9275 13.3333 26.1448 16.1428 21.1438 21.1438C16.1428 26.1448 13.3333 32.9275 13.3333 40C13.3333 47.0724 16.1428 53.8552 21.1438 58.8562C26.1448 63.8571 32.9275 66.6667 40 66.6667ZM23.3333 56.6667C23.3333 52.2464 25.0892 48.0071 28.2148 44.8815C31.3405 41.7559 35.5797 40 40 40C44.4202 40 48.6595 41.7559 51.7851 44.8815C54.9107 48.0071 56.6666 52.2464 56.6666 56.6667H50C50 54.0145 48.9464 51.471 47.071 49.5956C45.1957 47.7202 42.6521 46.6667 40 46.6667C37.3478 46.6667 34.8043 47.7202 32.9289 49.5956C31.0535 51.471 30 54.0145 30 56.6667H23.3333ZM26.6666 36.6667C25.3405 36.6667 24.0688 36.1399 23.1311 35.2022C22.1934 34.2645 21.6666 32.9927 21.6666 31.6667C21.6666 30.3406 22.1934 29.0688 23.1311 28.1311C24.0688 27.1934 25.3405 26.6667 26.6666 26.6667C27.9927 26.6667 29.2645 27.1934 30.2022 28.1311C31.1398 29.0688 31.6666 30.3406 31.6666 31.6667C31.6666 32.9927 31.1398 34.2645 30.2022 35.2022C29.2645 36.1399 27.9927 36.6667 26.6666 36.6667ZM53.3333 36.6667C52.0072 36.6667 50.7354 36.1399 49.7978 35.2022C48.8601 34.2645 48.3333 32.9927 48.3333 31.6667C48.3333 30.3406 48.8601 29.0688 49.7978 28.1311C50.7354 27.1934 52.0072 26.6667 53.3333 26.6667C54.6594 26.6667 55.9311 27.1934 56.8688 28.1311C57.8065 29.0688 58.3333 30.3406 58.3333 31.6667C58.3333 32.9927 57.8065 34.2645 56.8688 35.2022C55.9311 36.1399 54.6594 36.6667 53.3333 36.6667Z" fill="#D9D9D9"/>
</svg>
