<svg width="111" height="117" viewBox="0 0 111 117" fill="none" xmlns="http://www.w3.org/2000/svg">
<path fill-rule="evenodd" clip-rule="evenodd" d="M55.5693 106.79C80.6625 106.79 101.005 86.448 101.005 61.3547C101.005 36.2615 80.6625 15.9193 55.5693 15.9193C30.476 15.9193 10.1339 36.2615 10.1339 61.3547C10.1339 86.448 30.476 106.79 55.5693 106.79Z" stroke="#3AD29F" stroke-width="0.305962" stroke-dasharray="1.84 1.84"/>
<path fill-rule="evenodd" clip-rule="evenodd" d="M55.5692 116.428C85.9853 116.428 110.642 91.7708 110.642 61.3547C110.642 30.9387 85.9853 6.28154 55.5692 6.28154C25.1532 6.28154 0.496048 30.9387 0.496048 61.3547C0.496048 91.7708 25.1532 116.428 55.5692 116.428Z" stroke="#3AD29F" stroke-width="0.305962" stroke-dasharray="1.84 1.84"/>
<path d="M92.4285 78.9001C92.4301 72.4882 87.5518 67.1284 81.1681 66.5281C74.7843 65.9278 68.9924 70.2842 67.7985 76.584L29.616 75.5483L30.0352 82.1082C30.0352 82.1082 24.5906 94.671 53.2057 98.0182V110.716H86.2863V89.6042C90.0876 87.3784 92.4249 83.3051 92.4285 78.9001Z" fill="url(#paint0_linear_1_21)"/>
<path d="M31.3462 82.3835C31.3462 82.3835 26.1326 94.414 53.5361 97.6235V109.789H85.217V77.5723L30.9393 76.1006L31.3462 82.3835Z" fill="#FFCBB4"/>
<path d="M47.1798 32.1797C45.4601 34.8933 41.8717 35.7087 39.1482 34.0048L22.1383 22.7959C19.4247 21.0762 18.6093 17.4879 20.3132 14.7643C22.0326 12.0545 25.6164 11.2395 28.3386 12.9393L45.3486 24.1482C48.0643 25.8659 48.8826 29.4546 47.1798 32.1797Z" fill="url(#paint1_linear_1_21)"/>
<path d="M46.2374 31.5678C44.6389 34.0901 41.3035 34.8481 38.7719 33.2644L22.9552 22.8372C20.4329 21.2387 19.6749 17.9033 21.2586 15.3717C22.8571 12.8493 26.1925 12.0913 28.7241 13.6751L44.5378 24.0962C47.0649 25.6939 47.8248 29.0341 46.2374 31.5678Z" fill="#FFCBB4"/>
<path d="M79.2033 91.2075C85.774 91.2075 91.1006 85.8808 91.1006 79.3101C91.1006 72.7394 85.774 67.4128 79.2033 67.4128C72.6326 67.4128 67.306 72.7394 67.306 79.3101C67.306 85.8808 72.6326 91.2075 79.2033 91.2075Z" fill="#FFCBB4"/>
<path d="M77.0616 0.839996H31.4854C30.4504 0.839996 29.6114 1.67902 29.6114 2.71401V87.9949C29.6114 89.0299 30.4504 89.8689 31.4854 89.8689H77.0616C78.0965 89.8689 78.9356 89.0299 78.9356 87.9949V2.71401C78.9356 1.67902 78.0965 0.839996 77.0616 0.839996Z" fill="url(#paint2_linear_1_21)"/>
<path d="M76.1804 2.04396H32.3635C31.2111 2.04396 30.2769 2.97819 30.2769 4.13062V86.5813C30.2769 87.7338 31.2111 88.668 32.3635 88.668H76.1804C77.3328 88.668 78.267 87.7338 78.267 86.5813V4.13062C78.267 2.97819 77.3328 2.04396 76.1804 2.04396Z" fill="white"/>
<path d="M66.3284 4.21629C66.0415 6.11449 64.4129 7.51965 62.4932 7.52528H45.9192C44 7.5189 42.3723 6.11392 42.0855 4.21629H33.3044C32.8209 4.21629 32.3571 4.40767 32.015 4.74941C31.673 5.09114 31.4808 5.55481 31.4808 6.0383V84.6706C31.4808 85.1541 31.6722 85.6179 32.0139 85.9599C32.3557 86.3019 32.8193 86.4941 33.3028 86.4941H75.2411C75.7246 86.4941 76.1884 86.3027 76.5304 85.961C76.8724 85.6193 77.0646 85.1556 77.0646 84.6721V6.03983C77.0646 5.55634 76.8732 5.09251 76.5315 4.75049C76.1898 4.40846 75.7261 4.21629 75.2426 4.21629H66.3284Z" fill="#E9ECFF"/>
<path d="M59.3815 5.25198H49.2985C49.1296 5.25198 48.9926 5.38897 48.9926 5.55795V5.61455C48.9926 5.78353 49.1296 5.92051 49.2985 5.92051H59.3815C59.5505 5.92051 59.6875 5.78353 59.6875 5.61455V5.55795C59.6875 5.38897 59.5505 5.25198 59.3815 5.25198Z" fill="#DBDBDB"/>
<path d="M61.9592 6.0181C62.2345 6.0181 62.4576 5.79496 62.4576 5.5197C62.4576 5.24444 62.2345 5.0213 61.9592 5.0213C61.684 5.0213 61.4608 5.24444 61.4608 5.5197C61.4608 5.79496 61.684 6.0181 61.9592 6.0181Z" fill="#DBDBDB"/>
<path d="M86.8937 81.409C83.4409 82.2076 81.0712 79.9557 80.2726 76.5045L72.339 47.0449C71.5496 43.5802 73.7058 40.1283 77.1656 39.3178C80.6302 38.5284 84.0822 40.6846 84.8927 44.1444L91.3668 74.3643C92.1654 77.817 90.3449 80.6105 86.8937 81.409Z" fill="url(#paint3_linear_1_21)"/>
<path d="M84.0025 44.8655C83.3294 41.9522 80.422 40.1362 77.5087 40.8093C74.5954 41.4824 72.7793 44.3898 73.4524 47.3031L80.7477 78.8773C81.4209 81.7906 84.3282 83.6066 87.2416 82.9335C90.1549 82.2604 91.9709 79.353 91.2978 76.4397L84.0025 44.8655Z" fill="#FFCBB4"/>
<path d="M91.0501 105.808H45.7677V116.364H91.0501V105.808Z" fill="url(#paint4_linear_1_21)"/>
<path d="M89.8263 107.032H46.9916V115.293H89.8263V107.032Z" fill="#4D8AF0"/>
<path d="M40.5771 63.7825C38.8783 66.4639 35.3329 67.2698 32.642 65.5862L21.2342 58.2049C18.5528 56.5061 17.7469 52.9606 19.4305 50.2697C21.1293 47.5884 24.6747 46.7825 27.3656 48.4661L38.7734 55.8474C41.4548 57.5462 42.2607 61.0916 40.5771 63.7825Z" fill="url(#paint5_linear_1_21)"/>
<path d="M37.7133 79.4065C35.9994 82.1125 32.4217 82.9259 29.7063 81.227L22.6401 76.0746C19.9341 74.3607 19.1207 70.783 20.8196 68.0675C22.5335 65.3616 26.1112 64.5482 28.8266 66.2471L35.8928 71.401C38.5979 73.1149 39.4112 76.6914 37.7133 79.4065Z" fill="url(#paint6_linear_1_21)"/>
<g opacity="0.5">
<path d="M54.272 59.1151C61.8709 59.1151 68.0311 52.9549 68.0311 45.356C68.0311 37.757 61.8709 31.5968 54.272 31.5968C46.673 31.5968 40.5128 37.757 40.5128 45.356C40.5128 52.9549 46.673 59.1151 54.272 59.1151Z" fill="url(#paint7_linear_1_21)"/>
</g>
<path d="M54.272 58.3058C61.424 58.3058 67.2218 52.508 67.2218 45.356C67.2218 38.204 61.424 32.4061 54.272 32.4061C47.12 32.4061 41.3221 38.204 41.3221 45.356C41.3221 52.508 47.12 58.3058 54.272 58.3058Z" fill="#69F0AE"/>
<path d="M48.6514 43.6273L53.507 48.079L60.3866 37.9624L62.8159 39.9863L53.507 52.1269L46.6275 44.4381L48.6514 43.6273Z" fill="white"/>
<path d="M37.1427 79.0225C35.5442 81.5449 32.2088 82.3029 29.6772 80.7191L23.0868 75.9216C20.5644 74.3231 19.8064 70.9877 21.3902 68.4561C22.9887 65.9338 26.3241 65.1758 28.8557 66.7596L35.4446 71.5662C37.9619 73.1638 38.7199 76.4924 37.1427 79.0225Z" fill="#FFCBB4"/>
<path d="M39.9499 63.3771C38.3514 65.8995 35.016 66.6575 32.4844 65.0737L21.7512 58.1284C19.2289 56.5299 18.4709 53.1945 20.0547 50.6629C21.6532 48.1405 24.9886 47.3826 27.5202 48.9663L38.2533 55.9117C40.7757 57.5101 41.5336 60.8455 39.9499 63.3771Z" fill="#FFCBB4"/>
<path d="M43.5266 48.232C41.8194 50.9251 38.258 51.7343 35.5547 50.0433L21.098 40.6304C18.4049 38.9232 17.5957 35.3618 19.2867 32.6585C20.9939 29.9654 24.5553 29.1562 27.2586 30.8473L41.7153 40.2602C44.4084 41.9673 45.2176 45.5288 43.5266 48.232Z" fill="url(#paint8_linear_1_21)"/>
<path d="M42.7586 47.7425C41.1601 50.2648 37.8247 51.0228 35.2931 49.439L21.7528 40.6227C19.2304 39.0243 18.4724 35.6889 20.0562 33.1573C21.6547 30.6349 24.9901 29.8769 27.5217 31.4607L41.0605 40.277C43.5834 41.875 44.3421 45.2105 42.7586 47.7425Z" fill="#FFCBB4"/>
<defs>
<linearGradient id="paint0_linear_1_21" x1="61.0246" y1="110.723" x2="61.0246" y2="66.475" gradientUnits="userSpaceOnUse">
<stop stop-color="#808080" stop-opacity="0.25"/>
<stop offset="0.54" stop-color="#808080" stop-opacity="0.12"/>
<stop offset="1" stop-color="#808080" stop-opacity="0.1"/>
</linearGradient>
<linearGradient id="paint1_linear_1_21" x1="33.745" y1="34.8967" x2="33.745" y2="12.0505" gradientUnits="userSpaceOnUse">
<stop stop-color="#808080" stop-opacity="0.25"/>
<stop offset="0.54" stop-color="#808080" stop-opacity="0.12"/>
<stop offset="1" stop-color="#808080" stop-opacity="0.1"/>
</linearGradient>
<linearGradient id="paint2_linear_1_21" x1="54.2735" y1="89.8674" x2="54.2735" y2="0.838468" gradientUnits="userSpaceOnUse">
<stop stop-color="#808080" stop-opacity="0.25"/>
<stop offset="0.54" stop-color="#808080" stop-opacity="0.12"/>
<stop offset="1" stop-color="#808080" stop-opacity="0.1"/>
</linearGradient>
<linearGradient id="paint3_linear_1_21" x1="81.8636" y1="81.5681" x2="81.8636" y2="39.1526" gradientUnits="userSpaceOnUse">
<stop stop-color="#808080" stop-opacity="0.25"/>
<stop offset="0.54" stop-color="#808080" stop-opacity="0.12"/>
<stop offset="1" stop-color="#808080" stop-opacity="0.1"/>
</linearGradient>
<linearGradient id="paint4_linear_1_21" x1="68.412" y1="116.361" x2="68.412" y2="105.805" gradientUnits="userSpaceOnUse">
<stop stop-color="#808080" stop-opacity="0.25"/>
<stop offset="0.54" stop-color="#808080" stop-opacity="0.12"/>
<stop offset="1" stop-color="#808080" stop-opacity="0.1"/>
</linearGradient>
<linearGradient id="paint5_linear_1_21" x1="30.0015" y1="66.4658" x2="30.0015" y2="47.588" gradientUnits="userSpaceOnUse">
<stop stop-color="#808080" stop-opacity="0.25"/>
<stop offset="0.54" stop-color="#808080" stop-opacity="0.12"/>
<stop offset="1" stop-color="#808080" stop-opacity="0.1"/>
</linearGradient>
<linearGradient id="paint6_linear_1_21" x1="29.2672" y1="82.1143" x2="29.2672" y2="65.3583" gradientUnits="userSpaceOnUse">
<stop stop-color="#808080" stop-opacity="0.25"/>
<stop offset="0.54" stop-color="#808080" stop-opacity="0.12"/>
<stop offset="1" stop-color="#808080" stop-opacity="0.1"/>
</linearGradient>
<linearGradient id="paint7_linear_1_21" x1="54.272" y1="59.1151" x2="54.272" y2="31.5953" gradientUnits="userSpaceOnUse">
<stop stop-color="#808080" stop-opacity="0.25"/>
<stop offset="0.54" stop-color="#808080" stop-opacity="0.12"/>
<stop offset="1" stop-color="#808080" stop-opacity="0.1"/>
</linearGradient>
<linearGradient id="paint8_linear_1_21" x1="31.4059" y1="50.9321" x2="31.4059" y2="29.9691" gradientUnits="userSpaceOnUse">
<stop stop-color="#808080" stop-opacity="0.25"/>
<stop offset="0.54" stop-color="#808080" stop-opacity="0.12"/>
<stop offset="1" stop-color="#808080" stop-opacity="0.1"/>
</linearGradient>
</defs>
</svg>
