<svg xmlns="http://www.w3.org/2000/svg" xmlns:xlink="http://www.w3.org/1999/xlink" fill="none" version="1.1" width="25" height="28" viewBox="0 0 25 28"><defs><clipPath id="master_svg0_76_12549"><rect x="0" y="4" width="25" height="20" rx="0"/></clipPath></defs><g><rect x="0" y="0" width="25" height="28" rx="0" fill="#000000" fill-opacity="0" style="mix-blend-mode:passthrough"/><g clip-path="url(#master_svg0_76_12549)"><g transform="matrix(1,0,0,-1,0,48.859375)"><g><path d="M5.625,44.4296875Q7.38281,44.390587499999995,8.32031,42.8671875Q9.17969,41.3046875,8.32031,39.7421875Q7.38281,38.2187875,5.625,38.1796875Q3.86719,38.2187875,2.92969,39.7421875Q2.07031,41.3046875,2.92969,42.8671875Q3.86719,44.390587499999995,5.625,44.4296875ZM20,44.4296875Q21.7578,44.390587499999995,22.6953,42.8671875Q23.5547,41.3046875,22.6953,39.7421875Q21.7578,38.2187875,20,38.1796875Q18.2422,38.2187875,17.3047,39.7421875Q16.4453,41.3046875,17.3047,42.8671875Q18.2422,44.390587499999995,20,44.4296875ZM0,32.7499975Q0.0390625,34.5468875,1.21094,35.7187875Q2.38281,36.8905875,4.17969,36.9296875L5.82031,36.9296875Q6.75781,36.9296875,7.57812,36.5390875Q7.5,36.1093875,7.5,35.6796875Q7.57812,33.3749975,9.17969,31.9296875L0.820312,31.9296875Q0.078125,32.0078075,0,32.7499975ZM15.8203,31.9296875Q17.4219,33.3749975,17.5,35.6796875Q17.5,36.1093875,17.4219,36.5390875Q18.2422,36.9296875,19.1797,36.9296875L20.8203,36.9296875Q22.6172,36.8905875,23.7891,35.7187875Q24.9609,34.5468875,25,32.7499975Q24.9219,32.0078075,24.1797,31.9296875L15.8203,31.9296875ZM8.75,35.6796875Q8.75,36.6952875,9.25781,37.5546875Q9.76562,38.4140875,10.625,38.9218875Q11.5234,39.4296875,12.5,39.4296875Q13.4766,39.4296875,14.375,38.9218875Q15.2344,38.4140875,15.7422,37.5546875Q16.25,36.6952875,16.25,35.6796875Q16.25,34.6640875,15.7422,33.8046875Q15.2344,32.9453075,14.375,32.4374975Q13.4766,31.9296875,12.5,31.9296875Q11.5234,31.9296875,10.625,32.4374975Q9.76562,32.9453075,9.25781,33.8046875Q8.75,34.6640875,8.75,35.6796875ZM5,25.4843775Q5.03906,27.6718775,6.52344,29.1562475Q8.00781,30.6406275,10.1953,30.6796875L14.8047,30.6796875Q16.9922,30.6406275,18.4766,29.1562475Q19.9609,27.6718775,20,25.4843775Q19.9219,24.5078125,18.9453,24.4296875L6.05469,24.4296875Q5.07812,24.5078125,5,25.4843775Z" fill="#000000" fill-opacity="1" style="mix-blend-mode:passthrough"/></g></g></g></g></svg>