<svg xmlns="http://www.w3.org/2000/svg" xmlns:xlink="http://www.w3.org/1999/xlink" fill="none" version="1.1" width="12.25" height="14" viewBox="0 0 12.25 14"><defs><clipPath id="master_svg0_22_10249"><rect x="0" y="0" width="12.25" height="14" rx="0"/></clipPath></defs><g clip-path="url(#master_svg0_22_10249)"><g transform="matrix(1,0,0,-1,0,28.4375)"><g><path d="M8.3125,24.71875Q8.28516,25.94925,7.21875,26.605449999999998Q6.125,27.207050000000002,5.03125,26.605449999999998Q3.96484,25.94925,3.9375,24.71875Q3.96484,23.48828,5.03125,22.83203Q6.125,22.23047,7.21875,22.83203Q8.28516,23.48828,8.3125,24.71875ZM2.625,24.71875Q2.625,25.67575,3.08984,26.46875Q3.55469,27.26175,4.375,27.75395Q5.19531,28.21875,6.125,28.21875Q7.05469,28.21875,7.875,27.75395Q8.69531,27.26175,9.16016,26.46875Q9.625,25.67575,9.625,24.71875Q9.625,23.76172,9.16016,22.96875Q8.69531,22.17578,7.875,21.68359Q7.05469,21.21875,6.125,21.21875Q5.19531,21.21875,4.375,21.68359Q3.55469,22.17578,3.08984,22.96875Q2.625,23.76172,2.625,24.71875ZM1.33984,15.53125L10.9102,15.53125L1.33984,15.53125L10.9102,15.53125Q10.6914,16.87109,9.73438,17.71875Q8.75,18.56641,7.38281,18.59375L4.86719,18.59375Q3.5,18.56641,2.54297,17.71875Q1.55859,16.87109,1.33984,15.53125ZM0,15.039062Q0.0546875,17.08984,1.42188,18.48437Q2.81641,19.85156,4.86719,19.90625L7.38281,19.90625Q9.43359,19.85156,10.8281,18.48437Q12.1953,17.08984,12.25,15.039062Q12.25,14.683594,12.0039,14.464844Q11.7852,14.21875,11.4297,14.21875L0.820312,14.21875Q0.464844,14.21875,0.246094,14.464844Q0,14.683594,0,15.039062Z" fill="#4B5563" fill-opacity="1" style="mix-blend-mode:passthrough"/></g></g></g></svg>