<svg xmlns="http://www.w3.org/2000/svg" xmlns:xlink="http://www.w3.org/1999/xlink" fill="none" version="1.1" width="32" height="32" viewBox="0 0 32 32"><defs><clipPath id="master_svg0_76_12592"><rect x="0" y="0" width="32" height="32" rx="0"/></clipPath></defs><g clip-path="url(#master_svg0_76_12592)"><g><path d="M16.00003349227905,16.00003349227905C18.946633492279055,16.00003349227905,21.333333492279053,13.613333492279052,21.333333492279053,10.666663492279053C21.333333492279053,7.720003492279053,18.946633492279055,5.333333492279053,16.00003349227905,5.333333492279053C13.053333492279052,5.333333492279053,10.666663492279053,7.720003492279053,10.666663492279053,10.666663492279053C10.666663492279053,13.613333492279052,13.053333492279052,16.00003349227905,16.00003349227905,16.00003349227905ZM16.00003349227905,8.000003492279053C17.46663349227905,8.000003492279053,18.666633492279054,9.200003492279052,18.666633492279054,10.666663492279053C18.666633492279054,12.133333492279053,17.46663349227905,13.333333492279053,16.00003349227905,13.333333492279053C14.533333492279052,13.333333492279053,13.333333492279053,12.133333492279053,13.333333492279053,10.666663492279053C13.333333492279053,9.200003492279052,14.533333492279052,8.000003492279053,16.00003349227905,8.000003492279053ZM16.00003349227905,17.333333492279053C12.440003492279054,17.333333492279053,5.333333492279053,19.120033492279052,5.333333492279053,22.666633492279054L5.333333492279053,25.333333492279053C5.333333492279053,26.066633492279053,5.933333492279052,26.666633492279054,6.666663492279053,26.666633492279054L25.333333492279053,26.666633492279054C26.066633492279053,26.666633492279054,26.666633492279054,26.066633492279053,26.666633492279054,25.333333492279053L26.666633492279054,22.666633492279054C26.666633492279054,19.120033492279052,19.560033492279054,17.333333492279053,16.00003349227905,17.333333492279053ZM24.00003349227905,24.00003349227905L8.000003492279053,24.00003349227905L8.000003492279053,22.68003349227905C8.266663492279053,21.720033492279054,12.400003492279053,20.00003349227905,16.00003349227905,20.00003349227905C19.600033492279053,20.00003349227905,23.73333349227905,21.720033492279054,24.00003349227905,22.666633492279054L24.00003349227905,24.00003349227905Z" fill="#000000" fill-opacity="1" style="mix-blend-mode:passthrough"/></g></g></svg>